<?xml version="1.0" encoding="iso-8859-1"?>
<!-- Uploaded to: SVG Repo, www.svgrepo.com, Generator: SVG Repo Mixer Tools -->
<!DOCTYPE svg PUBLIC "-//W3C//DTD SVG 1.1//EN" "http://www.w3.org/Graphics/SVG/1.1/DTD/svg11.dtd">
<svg fill="#000000" version="1.1" id="Capa_1" xmlns="http://www.w3.org/2000/svg" xmlns:xlink="http://www.w3.org/1999/xlink" 
	 width="800px" height="800px" viewBox="0 0 54.6 54.6" xml:space="preserve">
<g>
	<path d="M13.453,10.662v40.516h11.342V10.662H13.453z M22.724,40.673h-7.141c-0.344,0-0.621-0.278-0.621-0.621
		s0.277-0.621,0.621-0.621h7.141c0.344,0,0.621,0.278,0.621,0.621C23.346,40.396,23.068,40.673,22.724,40.673z M22.724,36.948
		h-7.141c-0.344,0-0.621-0.278-0.621-0.621c0-0.344,0.277-0.622,0.621-0.622h7.141c0.344,0,0.621,0.278,0.621,0.622
		C23.346,36.671,23.068,36.948,22.724,36.948z M22.724,33.224h-7.141c-0.344,0-0.621-0.279-0.621-0.623
		c0-0.342,0.277-0.62,0.621-0.62h7.141c0.344,0,0.621,0.278,0.621,0.62C23.346,32.944,23.068,33.224,22.724,33.224z M22.724,29.496
		h-7.141c-0.344,0-0.621-0.276-0.621-0.62c0-0.342,0.277-0.621,0.621-0.621h7.141c0.344,0,0.621,0.279,0.621,0.621
		C23.346,29.22,23.068,29.496,22.724,29.496z M22.724,25.772h-7.141c-0.344,0-0.621-0.278-0.621-0.621
		c0-0.344,0.277-0.622,0.621-0.622h7.141c0.344,0,0.621,0.278,0.621,0.622C23.346,25.494,23.068,25.772,22.724,25.772z
		 M22.724,22.046h-7.141c-0.344,0-0.621-0.278-0.621-0.621c0-0.342,0.277-0.621,0.621-0.621h7.141c0.344,0,0.621,0.278,0.621,0.621
		C23.346,21.768,23.068,22.046,22.724,22.046z M22.724,18.321h-7.141c-0.344,0-0.621-0.278-0.621-0.621s0.277-0.621,0.621-0.621
		h7.141c0.344,0,0.621,0.278,0.621,0.621S23.068,18.321,22.724,18.321z M22.724,14.595h-7.141c-0.344,0-0.621-0.278-0.621-0.621
		c0-0.344,0.277-0.621,0.621-0.621h7.141c0.344,0,0.621,0.278,0.621,0.621C23.346,14.318,23.068,14.595,22.724,14.595z"/>
	<path d="M43.258,3.42v47.76h2.101V40.647h2.979v10.53h1.181v-10.53h2.979v10.53H54.6V3.42H43.258z M47.842,34.154h-2.483
		c-0.344,0-0.622-0.277-0.622-0.622c0-0.342,0.278-0.62,0.622-0.62h2.483c0.344,0,0.62,0.278,0.62,0.62
		C48.462,33.877,48.186,34.154,47.842,34.154z M47.842,30.428h-2.483c-0.344,0-0.622-0.278-0.622-0.62
		c0-0.344,0.278-0.623,0.622-0.623h2.483c0.344,0,0.62,0.279,0.62,0.623S48.186,30.428,47.842,30.428z M47.842,26.703h-2.483
		c-0.344,0-0.622-0.278-0.622-0.622c0-0.343,0.278-0.621,0.622-0.621h2.483c0.344,0,0.62,0.278,0.62,0.621
		C48.462,26.426,48.186,26.703,47.842,26.703z M47.842,22.977h-2.483c-0.344,0-0.622-0.278-0.622-0.621
		c0-0.343,0.278-0.621,0.622-0.621h2.483c0.344,0,0.62,0.278,0.62,0.621C48.462,22.699,48.186,22.977,47.842,22.977z M47.842,19.252
		h-2.483c-0.344,0-0.622-0.278-0.622-0.621c0-0.344,0.278-0.621,0.622-0.621h2.483c0.344,0,0.62,0.278,0.62,0.621
		S48.186,19.252,47.842,19.252z M47.842,15.526h-2.483c-0.344,0-0.622-0.278-0.622-0.621s0.278-0.621,0.622-0.621h2.483
		c0.344,0,0.62,0.278,0.62,0.621C48.462,15.249,48.186,15.526,47.842,15.526z M47.842,11.801h-2.483
		c-0.344,0-0.622-0.278-0.622-0.621c0-0.344,0.278-0.621,0.622-0.621h2.483c0.344,0,0.62,0.278,0.62,0.621
		C48.462,11.523,48.186,11.801,47.842,11.801z M47.842,8.075h-2.483c-0.344,0-0.622-0.278-0.622-0.62
		c0-0.344,0.278-0.621,0.622-0.621h2.483c0.344,0,0.62,0.278,0.62,0.621S48.186,8.075,47.842,8.075z M52.498,34.154h-2.483
		c-0.345,0-0.622-0.277-0.622-0.622c0-0.342,0.277-0.62,0.622-0.62h2.483c0.342,0,0.621,0.278,0.621,0.62
		C53.119,33.877,52.84,34.154,52.498,34.154z M52.498,30.428h-2.483c-0.345,0-0.622-0.278-0.622-0.62
		c0-0.344,0.277-0.623,0.622-0.623h2.483c0.342,0,0.621,0.279,0.621,0.623S52.84,30.428,52.498,30.428z M52.498,26.703h-2.483
		c-0.345,0-0.622-0.278-0.622-0.622c0-0.343,0.277-0.621,0.622-0.621h2.483c0.342,0,0.621,0.278,0.621,0.621
		C53.119,26.426,52.84,26.703,52.498,26.703z M52.498,22.977h-2.483c-0.345,0-0.622-0.278-0.622-0.621
		c0-0.343,0.277-0.621,0.622-0.621h2.483c0.342,0,0.621,0.278,0.621,0.621C53.119,22.699,52.84,22.977,52.498,22.977z
		 M52.498,19.252h-2.483c-0.345,0-0.622-0.278-0.622-0.621c0-0.344,0.277-0.621,0.622-0.621h2.483c0.342,0,0.621,0.278,0.621,0.621
		S52.84,19.252,52.498,19.252z M52.498,15.526h-2.483c-0.345,0-0.622-0.278-0.622-0.621s0.277-0.621,0.622-0.621h2.483
		c0.342,0,0.621,0.278,0.621,0.621C53.119,15.249,52.84,15.526,52.498,15.526z M52.498,11.801h-2.483
		c-0.345,0-0.622-0.278-0.622-0.621c0-0.344,0.277-0.621,0.622-0.621h2.483c0.342,0,0.621,0.278,0.621,0.621
		C53.119,11.523,52.84,11.801,52.498,11.801z M52.498,8.075h-2.483c-0.345,0-0.622-0.278-0.622-0.62
		c0-0.344,0.277-0.621,0.622-0.621h2.483c0.342,0,0.621,0.278,0.621,0.621S52.84,8.075,52.498,8.075z"/>
	<path d="M36.694,18.605c0-0.957-1.459-1.733-3.259-1.733c-1.802,0-3.261,0.776-3.261,1.733v1.733c0,0-0.869,0-1.94,0
		c-1.071,0-1.939,1.818-1.939,4.062v4.062h14.281c0,0,0-1.819,0-4.062c0-2.244-0.869-4.062-1.941-4.062h-1.938
		C36.694,20.338,36.694,19.562,36.694,18.605z M36.229,26.056h-5.588c0,0,0-0.863,0-1.928c0-1.064,1.251-1.928,2.795-1.928
		c1.542,0,2.793,0.862,2.793,1.928V26.056z"/>
	<path d="M26.295,30.118v21.06h1.396v-13.92c0-1.37,1.113-2.482,2.483-2.482c1.372,0,2.485,1.111,2.485,2.482v13.92h1.551v-13.92
		c0-1.37,1.111-2.482,2.483-2.482c1.371,0,2.484,1.111,2.484,2.482v13.92h1.397v-21.06H26.295z"/>
	<path d="M5.671,31.307C2.539,31.307,0,34.088,0,37.519v13.659h11.343V37.519C11.342,34.088,8.803,31.307,5.671,31.307z
		 M3.553,48.693H1.612v-3.182h1.941V48.693z M3.553,43.831H1.612v-3.184h1.941V43.831z M3.553,38.967H1.612v-3.182h1.941V38.967z
		 M6.641,48.693H4.701v-3.182h1.94L6.641,48.693L6.641,48.693z M6.641,43.831H4.701v-3.184h1.94L6.641,43.831L6.641,43.831z
		 M6.641,38.967H4.701v-3.182h1.94L6.641,38.967L6.641,38.967z M9.728,48.693h-1.94v-3.182h1.94V48.693z M9.728,43.831h-1.94v-3.184
		h1.94V43.831z M9.728,38.967h-1.94v-3.182h1.94V38.967z"/>
</g>
</svg>